<?xml version="1.0" encoding="UTF-8"?>
<svg id="b" data-name="Layer 2" xmlns="http://www.w3.org/2000/svg" width="2061.7745" height="456.7249" viewBox="0 0 2061.7745 456.7249">
  <g id="c" data-name="Layer 1">
    <g>
      <polygon points="757.027 181.1159 684.4121 181.1159 684.4121 338.8785 531.4414 181.1159 451.8229 181.1159 451.8229 439.1386 524.4379 439.1386 524.4379 269.5807 691.0469 439.1386 757.027 439.1386 757.027 181.1159" style="fill: #fff;"/>
      <path d="M1108.8227,269.2122c0-58.9766-51.2359-88.0963-117.2161-88.0963h-180.9845v258.0227h74.8266v-81.4614h75.9324l68.1917,81.4614h87.3591l-75.9324-87.7277c40.5464-11.7954,67.8231-39.0719,67.8231-82.1986ZM986.0775,303.1238h-100.9975v-64.8742h100.9975c26.9081,0,46.4441,7.3721,46.4441,32.4371,0,25.065-19.536,32.4371-46.4441,32.4371Z" style="fill: #fff;"/>
      <polygon points="1424.0527 381.6364 1222.7582 381.6364 1222.7582 335.9295 1385.3493 335.9295 1385.3493 281.0076 1222.7582 281.0076 1222.7582 238.6181 1419.9981 238.6181 1419.9981 181.1159 1148.6688 181.1159 1148.6688 439.1386 1424.0527 439.1386 1424.0527 381.6364" style="fill: #fff;"/>
      <path d="M1574.0746,181.1159l-133.4347,258.0227h78.8812l24.3279-49.393h141.5439l24.3279,49.393h79.9871l-133.4347-258.0228h-82.1986ZM1569.6513,336.2982l44.9697-91.4137,44.6011,91.4137h-89.5708Z" style="fill: #fff;"/>
      <polygon points="1888.162 378.6877 1888.162 181.1159 1812.9668 181.1159 1812.9668 439.1386 2061.7745 439.1386 2061.7745 378.6877 1888.162 378.6877" style="fill: #fff;"/>
      <path id="d" data-name="path13" d="M152.7057,332.9554l13.1307,6.687c16.0487,34.6506,24.9241,53.4956,40.8512,88.1462l48.6324,23.8299-1.9453,5.1064h-73.0702l-8.997-2.7964s-87.9031,7.6596-124.9853-27.842c-16.535-15.9271-20.1824-38.5412-11.9149-57.0215l.1216-.2432c3.8906-8.5107,10.3344-16.1703,19.3314-21.763l5.5927-8.0243-18.7235-58.1157c-4.8632-14.5897-8.7538-25.532,1.7021-24.073l-5.228-33.4348-3.1611.1216-11.1855-70.1522-5.228-2.7964c-3.1611-42.067,1.5806-25.0457-17.6292-62.4926l13.7387-33.3132,25.2888-8.7538.3647,5.8359c47.4166,8.7538,94.8332,17.5077,142.1282,26.2615l1.9453-5.1064c23.5867,4.6201,199.7576,36.5959,206.5661,42.5533,5.8359,4.9848,18.1156,23.4651,32.8269,47.6597-7.538-5.3496-17.8724-8.2675-30.76-8.2675h-239.0282l-65.0458-9.1186,2.5532,28.2068,55.6841,130.3348c16.8998,6.5654-2.7964,18.8451,6.4438,28.5715ZM40.1217,63.0456l.1216,2.9179,39.3922,40.8512h156.8395l-60.7905-12.766,1.9453-5.4711c-45.836-8.5107-91.6721-17.0213-137.5081-25.532ZM105.5323,278.244l-40.1217-4.0122,14.5897,45.836,42.6749-11.9149-17.1429-29.9089ZM52.6446,259.0342c18.9666,4.0122,22.4925,2.5532,43.2828,2.5532l-57.5078-99.6964,12.0365,61.0337-3.4043.1216,5.5927,35.988Z" style="fill: #fff;"/>
      <path id="e" data-name="path13" d="M152.7057,332.9554l13.1307,6.687c16.0487,34.6506,24.9241,53.4956,40.8512,88.1462l48.6324,23.8299-1.9453,5.1064h-73.0702l-8.997-2.7964s-87.9031,7.6596-124.9853-27.842c-16.535-15.9271-20.1824-38.5412-11.9149-57.0215l.1216-.2432c3.8906-8.5107,10.3344-16.1703,19.3314-21.763l5.5927-8.0243-18.7235-58.1157c-4.8632-14.5897-8.7538-25.532,1.7021-24.073l-5.228-33.4348-3.1611.1216-11.1855-70.1522-5.228-2.7964c-3.1611-42.067,1.5806-25.0457-17.6292-62.4926l13.7387-33.3132,25.2888-8.7538.3647,5.8359c47.4166,8.7538,94.8332,17.5077,142.1282,26.2615l1.9453-5.1064c23.5867,4.6201,199.7576,36.5959,206.5661,42.5533,5.8359,4.9848,18.1156,23.4651,32.8269,47.6597-7.538-5.3496-17.8724-8.2675-30.76-8.2675h-239.0282l-65.0458-9.1186,2.5532,28.2068,55.6841,130.3348c16.8998,6.5654-2.7964,18.8451,6.4438,28.5715ZM40.1217,63.0456l.1216,2.9179,39.3922,40.8512h156.8395l-60.7905-12.766,1.9453-5.4711c-45.836-8.5107-91.6721-17.0213-137.5081-25.532ZM105.5323,278.244l-40.1217-4.0122,14.5897,45.836,42.6749-11.9149-17.1429-29.9089ZM52.6446,259.0342c18.9666,4.0122,22.4925,2.5532,43.2828,2.5532l-57.5078-99.6964,12.0365,61.0337-3.4043.1216,5.5927,35.988Z" style="fill: #f8b435;"/>
      <g>
        <path d="M178.3712,311.0142v-129.8982h-55.696l55.7607,133.5731c-.0382-1.2143-.0648-2.4362-.0648-3.6749Z" style="fill: #fff;"/>
        <path d="M326.9836,181.1159v129.8983c0,44.7673-24.5853,73.7557-74.1227,73.7557-22.4213,0-39.788-5.9554-52.1023-16.6077l18.0618,43.2664,60.4494,33.583c79.0911-8.7168,122.5705-57.4755,122.5705-128.1263v-135.7693h-74.8566Z" style="fill: #fff;"/>
      </g>
      <path id="f" data-name="path9" d="M502.0129,43.8444c-7.8601,0-12.2199,2.1492-15.4745,6.2021l1.658-6.2021h-57.1697l-16.594,61.6744,40.5427,53.8931h2.2721l25.2996-94.5664c1.3509-5.0354,4.7283-6.939,10.9304-6.939h6.6933c6.2021,0,7.0618,1.1667,5.4038,7.3688l-25.2382,94.1366h57.1697l25.9751-96.7157c3.3774-12.6498-1.1667-18.8519-13.8165-18.8519h-47.6517ZM660.1353,43.8444l-25.361,94.6278c-1.3509,4.9739-4.7283,6.8776-10.9304,6.8776h-6.6319c-6.2021,0-7.0618-1.1667-5.4038-7.3688l25.1768-94.1366h-57.1697l-25.9137,96.7771c-3.3774,12.5884,1.1667,18.7905,13.7551,18.7905h47.6517c7.8601,0,12.2814-2.1492,15.4745-6.2021l-1.658,6.2021h57.2311l30.949-115.5675h-57.1697ZM742.7274,0l-42.6777,159.412h57.1697L799.9586,0h-57.2311ZM876.8398,43.8444h-56.7399l-47.2218,57.1697,15.7815,58.3978h57.2311l-17.9922-58.3978,48.9412-57.1697ZM924.0002,93.1541l7.4916-27.8787c1.658-6.2021,3.1932-7.3688,9.3952-7.3688h12.5884c6.2021,0,7.0618,1.1667,5.4038,7.3688l-7.4302,27.8787h-27.4488ZM898.8849,43.8444c-12.6498,0-20.5099,6.2021-23.8872,18.8519l-20.8783,77.9252c-3.3774,12.5884,1.1667,18.7905,13.7551,18.7905h102.2423c12.6498,0,20.5099-6.2021,23.8872-18.7905l5.4038-20.2642h-55.2661l-4.7283,17.6237c-1.658,6.2021-3.1932,7.3688-9.3338,7.3688h-12.6498c-6.2021,0-7.0618-1.1667-5.4038-7.3688l8.2285-30.7648h82.7149l11.9129-44.5199c3.3774-12.6498-1.1667-18.8519-13.7551-18.8519h-102.2423Z" style="fill: #fff; fill-rule: evenodd;"/>
    </g>
  </g>
</svg>