<?xml version="1.0" encoding="UTF-8"?>
<svg id="b" data-name="Layer 2" xmlns="http://www.w3.org/2000/svg" width="935.5227" height="820.1458" xmlns:xlink="http://www.w3.org/1999/xlink" viewBox="0 0 935.5227 820.1458">
  <defs>
    <clipPath id="d">
      <path d="M907.84,330.8271c-17.7412-41.9429-43.1357-79.6094-75.4795-111.9531-12.1549,54.6024-4.2737,69.3986-46.217,51.6583-20.0055-32.9972-67.9752-105.5404-82.0651-124.4916-36.4659-12.4509-79.525-18.9122-120.7726-30.3289-58.9512,0-117.1982,14.8335-168.623,42.918H90.3713l141.4941,285.7998c-.5156,7.8125-.7764,15.7051-.7764,23.499,0,47.5449,9.3135,93.6719,27.6826,137.1016,17.7402,41.9434,43.1357,79.6094,75.4785,111.9531,7.9976,7.9976,11.857,11.6244,20.4896,18.7616,42.8199.365,172.1739-.5294,198.2609,0,43.4297,18.3691-17.2397,84.4005,30.3052,84.4005s93.6719-9.3135,137.1016-27.6826c41.9434-17.7412,79.6094-43.1357,111.9531-75.4795s57.7383-70.0098,75.4795-111.9531c18.3691-43.4297,27.6826-89.5566,27.6826-137.1016s-9.3135-93.6724-27.6826-137.1016Z" style="fill: none;"/>
    </clipPath>
  </defs>
  <g id="c" data-name="Layer 1">
    <g>
      <path d="M583.3057,125.712c-60.2567,0-116.8738,15.5767-166.0503,42.9181H106.4807l135.5484,273.7919c-.6205,8.4216-.9404,16.9268-.9404,25.5069,0,189.0012,153.2157,342.2169,342.217,342.2169s342.2168-153.2157,342.2168-342.2169S772.3068,125.712,583.3057,125.712Z" style="fill: #5e5e5e; stroke: #f8b435; stroke-miterlimit: 10; stroke-width: 20px;"/>
      <path d="M436.1377,326.6977c2.9368.3113,5.8317,1.043,8.5435,2.2008,15.1447,6.416,22.2232,23.8917,15.8072,39.0364l-64.6949,168.9037c-6.5888,17.2019-19.0616,16.7109-29.1818,12.6163-6.7367-3.136-13.0819-7.0349-18.9212-11.633,20.5711,74.1604,74.621,134.4332,146.1203,162.9308l86.2548-38.7797,21.0004,55.6312c108.5656-8.2263,168.1377-77.3884,186.5985-106.1568-46.8755,21.7148-97.4022,42.2891-113.2725,8.5469,0,0,48.0157-129.4512,68.266-182.3201,27.2037-71.0226,115.0125-98.2132,115.0125-98.2132-39.6116-7.6116-89.1769-11.5145-154.1036,16.7607-5.8985,2.6026-11.6516,5.4991-17.2486,8.7134-14.3737-23.2466-42.3723-28.6922-42.3723-28.6922,11.2038,13.1818,16.6805,41.3157,9.4818,60.1097l-70.7468,184.7038s-41.3454,15.3593-65.1927,6.2251c-10.9597-4.0788-19.2507-13.2079-22.2666-24.5036-.9211-3.1906-1.4446-6.4868-1.521-9.8103l87.358-228.072c-9.2879,3.1103-34.8664-1.3488-19.7731-40.7539,9.4126-24.5741,38.3385-47.0916,76.6848-52.963-33.749-7.2711-80.5236-10.7402-137.3923,9.1909-67.7393,24.4792-121.2985,77.5286-146.4061,145.0477-.0107-.0239,50.626-63.1625,81.9655-58.7194Z" style="fill: #fff;"/>
      <g style="clip-path: url(#d);">
        <path d="M334.2238,755.7451c-2.0127,0-4.0137-.3037-5.9355-.9014l-12.0625-3.749c-5.8105.3809-17.4912.9902-32.8164.9902-24.2588,0-60.7637-1.5732-96.9131-9.0752-43.4854-9.0244-76.9951-24.5723-99.5996-46.2119-33.8799-32.6348-43.75-80.501-25.1895-121.9883.1162-.2607.2373-.5176.3652-.7725l.0664-.1328c8.1611-17.6914,21.0898-32.7939,37.5527-43.9219l1.8428-2.6436-29.5645-91.7646-.5508-1.6533c-7.7275-23.1543-13.8301-41.4434-3.6406-55.5845.9014-1.251,2.1621-2.7563,3.8428-4.2505l-4.5205-28.9067c-3.9082-3.0195-6.6943-7.4746-7.5244-12.6792l-17.9297-112.4526-.3574-.1909c-6.0322-3.2271-9.998-9.3145-10.5098-16.1372-1.0156-13.5107-1.5596-23.3931-1.9971-31.3335-.6582-11.958-.9893-17.96-2.1572-22.124-1.1152-3.9741-3.583-8.6201-9.5547-19.6782-3.6143-6.6919-8.5625-15.8564-14.8652-28.1431-2.6748-5.2129-2.9287-11.3369-.6943-16.7534L25.4533,27.6309c2.1836-5.2959,6.5332-9.4009,11.9473-11.2744L81.4729,1.1006c2.1299-.7373,4.3408-1.1006,6.541-1.1006,3.8984,0,7.7627,1.1396,11.0879,3.3545,3.5977,2.396,6.2773,5.8604,7.7168,9.8325,72.7871,13.4375,145.5674,26.876,218.1895,40.3135,3.7471-4.0723,9.0781-6.4639,14.7139-6.4639,1.2754,0,2.5645.1221,3.8555.375,7.0586,1.3823,21.8818,4.1562,42.3984,7.9946,46.8213,8.7598,125.1855,23.4214,191.3975,36.6543,124.6299,24.9072,129.9141,29.1816,135.4521,34.0259,7.6543,6.5771,21.5762,22.6187,61.1963,87.7798,4.9287,8.106,3.4844,18.5591-3.457,25.0249-3.8145,3.5537-8.7139,5.3657-13.6367,5.3657-4.0352.0005-8.0859-1.2168-11.5703-3.6899-9.8799-7.0122-24.4141-10.7183-42.0312-10.7183h-416.5645c-.9287,0-1.8564-.0649-2.7764-.1938l-88.3896-12.3911,1.8916,20.8994,92.9082,217.4619c11.1562,6.7373,15.1182,15.6182,16.3818,22.4482,1.7617,9.5234-1.1523,18.0605-3.2793,24.2939-.3516,1.0293-.7881,2.3096-1.1553,3.4941l15.7422,8.0166c3.9941,2.0332,7.1895,5.3496,9.0723,9.417,10.4229,22.502,19.1074,41.1777,27.3398,58.8799,12.8164,27.5576,24.9629,53.6758,40.9014,88.3154l78.3574,38.3955c9.2822,4.5479,13.5693,15.4189,9.8906,25.0781l-3.3896,8.8994c-2.9541,7.7559-10.3906,12.8818-18.6904,12.8818h-127.3428ZM172.6252,473.1348l31.0342-8.6641-11.9766-20.8945-29.4023-2.9404,10.3447,32.499ZM129.342,374.2134c9.4492,1.5352,15.9971,1.897,23.4697,1.9077l-25.2842-43.8311c-.5732,2.8096-1.749,5.4912-3.4805,7.8462l5.2949,34.0771ZM283.465,105.9424l-141.5215-26.2773,25.3389,26.2773h116.1826Z" style="opacity: .18;"/>
      </g>
      <path id="e" data-name="path13" d="M286.1264,520.0469l22.8835,11.6536c27.9687,60.387,43.4363,93.229,71.1931,153.616l84.7537,41.5293-3.3901,8.8991h-127.3424l-15.6794-4.8733s-153.1922,13.3487-217.8169-48.5215c-28.8162-27.7568-35.1728-67.1673-20.7646-99.3737l.2119-.4238c6.7803-14.8319,18.0102-28.1806,33.6896-37.9273l9.7467-13.9844-32.6302-101.2806c-8.4754-25.4261-15.2557-44.4957,2.9664-41.9531l-9.111-58.2681-5.509.2119-19.4933-122.2572-9.111-4.8733c-5.509-73.3119,2.7545-43.6481-30.7232-108.9085l23.9429-58.0563,44.0719-15.2557.6357,10.1704c82.6348,15.2557,165.2696,30.5113,247.6926,45.767l3.3901-8.8991c41.1055,8.0516,348.1257,63.7771,359.9912,74.1595,10.1704,8.6873,31.5707,40.8936,57.2087,83.0586-13.1368-9.3229-31.147-14.4081-53.6067-14.4081h-416.5643l-113.358-15.8913,4.4496,49.1571,97.0429,227.1398c29.4519,11.4417-4.8733,32.842,11.2299,49.7928ZM89.9217,49.6641l.2119,5.0852,68.6505,71.1931h273.3306l-105.9421-22.2478,3.3901-9.5348c-79.8803-14.8319-159.7607-29.6638-239.641-44.4957ZM203.9153,424.699l-69.9218-6.9922,25.4261,79.8803,74.3713-20.7646-29.8757-52.1235ZM111.7457,391.2213c33.0539,6.9922,39.1986,4.4496,75.4308,4.4496l-100.2212-173.745,20.9765,106.3658-5.9328.2119,9.7467,62.7177Z" style="fill: #f8b435;"/>
      <path d="M778.9758,257.3427c17.2427,15.6282,32.5916,33.3078,45.6614,52.6537" style="fill: none; stroke: #fff; stroke-miterlimit: 10; stroke-width: 18px;"/>
      <path d="M297.0279,442.4221c7.5664-75.2407,43.9694-141.9749,97.9907-188.9843" style="fill: none; stroke: #fff; stroke-miterlimit: 10; stroke-width: 18px;"/>
      <path d="M853.9718,365.6554c12.949,32.8385,20.0623,68.6162,20.0623,106.0554,0,159.7403-129.4951,289.2354-289.2354,289.2354-23.9222,0-47.1661-2.9042-69.3984-8.3793" style="fill: none; stroke: #fff; stroke-miterlimit: 10; stroke-width: 18px;"/>
    </g>
  </g>
</svg>