<?xml version="1.0" encoding="UTF-8"?>
<svg id="b" data-name="Layer 2" xmlns="http://www.w3.org/2000/svg" width="895.4576" height="778.0758" viewBox="0 0 895.4576 778.0758">
  <g id="c" data-name="Layer 1">
    <g>
      <path d="M431.9364,318.3412c3.0483.3231,6.0531,1.0826,8.8679,2.2844,15.7196,6.6596,23.0669,24.7987,16.4073,40.5184l-67.151,175.3161c-6.8389,17.8549-19.7853,17.3453-30.2896,13.0952-6.9924-3.255-13.5786-7.302-19.6396-12.0747,21.352,76.9759,77.4539,139.537,151.6678,169.1165l89.5294-40.252,21.7977,57.7433c112.6873-8.5387,174.521-80.3265,193.6827-110.1871-48.6551,22.5392-101.1001,43.8946-117.5729,8.8714,0,0,49.8386-134.3658,70.8577-189.2419,28.2364-73.719,119.3789-101.9418,119.3789-101.9418-41.1154-7.9005-92.5625-11.9517-159.9541,17.397-6.1224,2.7014-12.0939,5.7079-17.9034,9.0442-14.9194-24.1292-43.981-29.7815-43.981-29.7815,11.6291,13.6822,17.3137,42.8842,9.8418,62.3917l-73.4327,191.7161s-42.9151,15.9424-67.6677,6.4615c-11.3757-4.2336-19.9815-13.7093-23.112-25.4339-.9561-3.3117-1.4994-6.7331-1.5788-10.1828l90.6745-236.7307c-9.6405,3.2283-36.1901-1.4-20.5238-42.3011,9.7699-25.507,39.794-48.8795,79.5961-54.9737-35.0302-7.5471-83.5807-11.1479-142.6084,9.5398-70.311,25.4085-125.9036,80.4719-151.9644,150.5544-.0111-.0248,52.548-65.5604,85.0773-60.9486Z" style="fill: #fff;"/>
      <path id="d" data-name="path13" d="M276.23,519.0308l23.7523,12.0961c29.0305,62.6796,45.0853,96.7685,73.8959,159.448l87.9713,43.106-3.5189,9.237h-132.1769l-16.2747-5.0584s-159.0082,13.8555-226.0863-50.3636c-29.9103-28.8106-36.5081-69.7173-21.553-103.1464l.2199-.4399c7.0377-15.395,18.6939-29.2505,34.9686-39.3672l10.1167-14.5153-33.869-105.1257c-8.7971-26.3914-15.8348-46.1849,3.079-43.5458l-9.4569-60.4803-5.7181.2199-20.2334-126.8986-9.4569-5.0584c-5.7181-76.0952,2.8591-45.3052-31.8896-113.0432L24.8519,15.8348,70.597,0l.6598,10.5566c85.772,15.8348,171.5441,31.6697,257.0962,47.5045l3.5189-9.237c42.6661,8.3573,361.3422,66.1984,373.6582,76.9749,10.5566,9.0171,32.7693,42.4462,59.3806,86.2119-13.6356-9.6768-32.3295-14.9551-55.6419-14.9551h-432.3791l-117.6617-16.4946,4.6185,51.0234,100.7272,235.7632c30.57,11.8761-5.0584,34.0889,11.6562,51.6832ZM72.5763,30.79l.2199,5.2783,71.2568,73.8959h283.7075l-109.9642-23.0925,3.5189-9.8968c-82.913-15.395-165.826-30.79-248.7389-46.1849ZM190.8978,420.0631l-72.5763-7.2576,26.3914,82.913,77.1948-21.553-31.0099-54.1024ZM95.229,385.3144c34.3088,7.2576,40.6867,4.6185,78.2945,4.6185l-104.0261-180.3412,21.7729,110.404-6.158.2199,10.1167,65.0988Z" style="fill: #f8b435;"/>
      <path d="M787.7904,246.3531c17.8973,16.2215,33.829,34.5724,47.395,54.6527" style="fill: none; stroke: #fff; stroke-miterlimit: 10; stroke-width: 18px;"/>
      <path d="M287.5454,438.459c7.8536-78.0972,45.6386-147.365,101.7109-196.1591" style="fill: none; stroke: #fff; stroke-miterlimit: 10; stroke-width: 18px;"/>
      <path d="M865.6336,358.7778c13.4406,34.0852,20.824,71.2212,20.824,110.0817,0,165.8048-134.4114,300.2162-300.2162,300.2162-24.8304,0-48.9568-3.0145-72.0331-8.6974" style="fill: none; stroke: #fff; stroke-miterlimit: 10; stroke-width: 18px;"/>
    </g>
  </g>
</svg>