<svg id="Layer_1" data-name="Layer 1" xmlns="http://www.w3.org/2000/svg" xmlns:xlink="http://www.w3.org/1999/xlink" viewBox="0 0 461.03115 391.39667"><defs><clipPath id="clip-path" transform="translate(-30.60698 -43.73003)"><polygon points="145.565 168.088 499.661 168.088 517 233.821 508.783 443.343 373.21 472.101 277.813 472.458 145.565 168.088" style="fill:none"/></clipPath></defs><g id="path13"><path d="M176.13516,317.17471l12.51357,6.37266c15.29437,33.02192,23.75261,50.98121,38.93111,84.00313l46.34656,22.70981-1.85386,4.86639H202.43683l-8.57411-2.66493s-83.7714,7.29959-119.11065-26.5334c-15.75783-15.1785-19.23382-36.72965-11.35491-54.34134l.11587-.23173a47.75145,47.75145,0,0,1,18.42276-20.74008l5.32985-7.64719L69.42222,267.5839c-4.63466-13.904-8.34238-24.33194,1.62213-22.94155l-4.98226-31.86326-3.01253.11587-10.6597-66.85491-4.98226-2.66492C44.39508,103.28535,48.91387,119.50665,30.607,83.8198l13.0929-31.74739L67.80009,43.73l.3476,5.56159Q135.92953,61.80519,203.5955,74.31876l1.85386-4.86639c22.47808,4.40292,190.36848,34.87578,196.857,40.55323,5.56159,4.75053,17.26409,22.36222,31.28393,45.41963-9.142-6.48787-22.59989-9.2228-39.89606-7.24958l-217.10509-.61446-62.0949-8.70485,2.4332,26.881,53.0668,124.20877C186.09967,296.2029,167.32932,307.9054,176.13516,317.17471ZM68.01283,60.43113l.11646,2.79493,37.73158,39.12905H256.08846L197.86071,90.12728l1.86329-5.24049Zm62.65306,204.5915-38.43031-3.843,13.97466,43.90372,40.87588-11.41264Zm-50.65814-18.4c18.16706,3.843,21.54427,2.44557,41.45816,2.44557L66.38246,153.57472l11.52909,58.46066-3.26075.11646Z" transform="translate(-30.60698 -43.73003)" style="fill:#f8b435"/></g><g style="clip-path:url(#clip-path)"><path d="M325.72173,431.00248l-3.05514-.339.002-.018c-7.84347-.666-80.58911-8.54356-112.91181-55.1831l-1.12136-1.61884-11.7331-15.50439,20.26463,7.86955a27.76469,27.76469,0,0,0,8.18448,1.56869c1.75927.02407,4.15243-.17853,5.37208-1.37411,1.21363-1.19157,1.46839-3.58272,1.46839-5.37809V252.685a5.76834,5.76834,0,0,0-1.5707-4.026,6.33764,6.33764,0,0,0-4.40719-1.51252c-4.03005.01-13.10922,2.40519-28.61761,18.3188-29.82524,30.59754-42.62152,60.00753-42.7479,60.30041l-7.75319,18.44117-.04815-.2347-.14242.331L143.06726,324.56c-.38515-1.91974-8.90062-47.63251,39.39186-102.59093,42.32061-48.15607,77.94921-72.68346,122.97792-84.65928l46.93242-12.48135-42.16816,23.7631c-.25878.15045-26.75405,15.95774-26.75405,38.27852,0,7.37206,1.24373,11.50442,2.28885,13.67491,1.18154,2.45535,2.51753,2.74622,3.42224,2.75023a8.73727,8.73727,0,0,0,2.78634-.91072c.75827-.329,1.59878-.69007,2.5757-1.07121l8.39311-3.25774V348.3833a8.56148,8.56148,0,0,0,1.18355,2.08223c2.47139,3.25373,5.5847,6.27678,11.55456,6.31088,9.05309-.05818,21.54245-8.73213,27.62265-13.701v-112.308c0-9.93974-7.56865-21.78116-14.08013-25.3378l-18.64177-10.17846L331.7598,193.871s1.332-.03009,3.59275-.08827c6.036,0,16.24861.64192,24.30872,4.38713,10.21456-10.4292,40.69977-37.54232,89.39947-47.07284l17.02092-3.33-.08425.1003.25075-.04814-11.17945,13.31383c-.30691.36108-30.64769,36.1662-39.94551,53.476-.688,4.39515-1.31794,23.71495-.96689,65.55613.25878,30.64569.91273,58.0918,1.30992,65.56416a10.33166,10.33166,0,0,0,5.79734,1.54863h.08024c6.365,0,20.74206-4.002,45.99963-30.5494l24.29468-25.5364-14.19045,32.27055s-.70411,1.59878-2.11834,4.42925c-7.27777,14.53749-34.81616,64.20208-83.72248,93.05039l-3.76928,2.22265-30.44509-25.743ZM229.54,379.83339c29.4,28.86837,79.05853,36.70381,91.42754,38.24643l35.436-37.57241,5.23967,4.36907,27.416,23.18536c26.4732-16.60768,46.0277-39.62455,58.82-58.17-9.84345,6.45933-18.712,9.71105-26.52937,9.71105h-.14844c-11.35-.05616-16.2787-6.89864-16.80227-7.679l-.68806-1.02306-.24273-1.20962c-.70611-3.53859-1.41623-43.29553-1.63689-69.4217-.11234-13.384-.18656-32.43905.09227-47.20523.29689-15.6769.4333-22.93862,3.2076-25.85535,6.359-11.19549,19.045-27.66477,28.54941-39.48814-43.07487,13.62476-67.07467,40.9786-68.2,42.2825l-3.79335,4.39916-4.6138-3.52655a23.30112,23.30112,0,0,0-9.14536-3.60077c4.64791,7.15741,7.671,15.81331,7.671,23.49228V348.66815l-2.04412,1.8375c-2.1083,1.89166-21.069,18.48731-37.89938,18.59563a26.01412,26.01412,0,0,1-21.38-11.19148,18.53074,18.53074,0,0,1-3.6088-7.77326l-.07823-.97692V215.5559c-.47342.04614-.96689.06018-1.49447.06419-6.23465-.03209-11.50643-3.5787-14.46528-9.73311-2.327-4.83447-3.50649-11.23361-3.50649-19.0169,0-11.05106,4.44329-20.5896,10.06211-28.23447-24.76008,10.81235-53.34962,30.37086-89.46567,71.46982-23.31977,26.5374-32.21237,50.68966-35.40793,67.59223A257.15622,257.15622,0,0,1,188.77,256.86349c14.22456-14.59768,26.81222-22.01386,37.41193-22.042h.06018A17.61259,17.61259,0,0,1,244.51678,252.685V361.02512c0,6.04408-1.73519,10.81235-5.15943,14.1724A17.21148,17.21148,0,0,1,229.54,379.83339Z" transform="translate(-30.60698 -43.73003)" style="fill:#fff"/><path id="path68" d="M148.97328,323.81235s-8.85533-44.00921,37.979-97.30707c46.83855-53.29618,81.97972-72.67667,119.93331-82.77191,0,0-.03216.01947-.066.03894.04825-.01269.09648-.02624.14388-.03894,0,0-29.81428,17.36451-29.81428,43.6055,0,7.61713,1.21451,12.85094,2.897,16.3472,2.23267,4.64476,5.7687,6.224,8.94336,6.23927,2.67529.01524,4.241-1.08418,7.62558-2.39855V349.62762A12.53765,12.53765,0,0,0,299.048,354.654c2.97416,3.91994,7.64869,8.70409,16.4301,8.75252,14.98041-.096,33.82214-17.01729,33.82214-17.01729V231.2362c0-11.729-8.394-25.88829-17.28911-30.74626,0,0,1.21174-.07631,3.17392-.07547,5.873-.00169,18.472.66988,25.49229,6.03326,1.95032-2.25982,33.425-37.87423,89.43118-48.8333l-.02715.03138c.05173-.01017.10175-.0212.15348-.03138,0,0-30.97776,36.47593-40.68691,54.56466-1.72561.10261-1.97745,34.31788-1.69,68.50686.279,33.00268,1.06249,65.98671,1.517,68.26858,0,0,3.30536,4.91309,11.72223,4.95549,9.49379.04834,25.49227-6.10108,50.575-32.46677l-.00086.00085.00086-.00085s-.66141,1.50174-1.99272,4.1618c-7.18817,14.36278-33.89729,62.51262-81.34078,90.49876l-.00254-.00255-.00424.00255L357.55937,390.0773l-.78607-.65632L323.211,425.00741l-.05087-.00509-.00425.00509s-76.51331-6.4725-108.47046-52.58637l.15094.05512c-.01357-.01866-.02713-.03647-.03985-.05512a33.727,33.727,0,0,0,10.301,1.98593c6.39957.117,13.11967-2.22082,13.11967-12.91362V253.15421c0-5.5258-3.80433-11.72445-12.15523-11.70075-7.51044.01947-18.2929,5.073-33.016,20.17946-31.08972,31.89459-44.00074,62.17943-44.00074,62.17943s-.00846-.04147-.022-.1151c-.03047.07109-.04993.1151-.04993.1151" transform="translate(-30.60698 -43.73003)"/></g></svg>